# xmcd
#
# Track frame offsets:
#	150
#	17495
#	31182
#	47877
#	59742
#	74657
#	89412
#	105927
#	123587
#	140425
#	156307
#
# Disc length: 2271 seconds
#
# Revision: 2
# Processed by: cddbd v1.5.2PL0 Copyright (c) Steve Scherf et al.
# Submitted via: audiograbber 1.83.01
#
DISCID=9908dd0b
DTITLE=The Wilkinsons - Nothing But Love
DYEAR=1998
DGENRE=Country
TTITLE0=26¢
TTITLE1=Boy Oh Boy
TTITLE2=Fly (The Angel Song)
TTITLE3=Don't I Have A Heart
TTITLE4=The Yodelin' Blues
TTITLE5=Nothing But Love (Standing In The Way)
TTITLE6=The Word
TTITLE7=Williamstown
TTITLE8=Then There's You
TTITLE9=Back On My Feet
TTITLE10=One Faithful Heart
EXTD=Giant Catalogue # W2 24699\nUPC 7-77495-96015-6
EXTT0=
EXTT1=
EXTT2=
EXTT3=
EXTT4=
EXTT5=
EXTT6=
EXTT7=
EXTT8=
EXTT9=
EXTT10=
PLAYORDER=
